<svg width="64" height="64" viewBox="0 0 64 64" fill="none" xmlns="http://www.w3.org/2000/svg">
<g filter="url(#filter0_d_67_589)">
<circle cx="32" cy="28" r="28" fill="#FF4242"/>
</g>
<path d="M39.5026 33.4443L38.8096 33.2284C38.473 33.1359 38.1423 33.0198 37.8196 32.8807C37.4906 32.7521 37.2072 32.5137 37.0097 32.1994C36.8122 31.885 36.7107 31.5108 36.7196 31.1299C39.8436 27.5324 39.7996 24.3307 39.7336 20.9731C39.7336 20.5174 39.7336 20.0617 39.7336 19.5941C39.7051 17.3775 38.8848 15.2604 37.4469 13.6929C36.0089 12.1253 34.0669 11.231 32.0336 11.2C29.9945 11.2217 28.0441 12.1119 26.5991 13.6804C25.1542 15.2489 24.3292 17.3713 24.3006 19.5941C24.3006 20.0617 24.3006 20.5174 24.3006 20.9731C24.2346 24.3307 24.1906 27.5085 27.3146 31.1299C27.3202 31.5228 27.21 31.9074 27.0001 32.2269C26.7901 32.5464 26.4917 32.784 26.1486 32.9046C25.8406 33.0366 25.5106 33.1325 25.2026 33.2284L24.5096 33.4443C20.5716 34.8713 16.6006 38.7805 16.6006 43.5771C16.6006 43.8951 16.7165 44.2001 16.9228 44.425C17.1291 44.6499 17.4088 44.7762 17.7006 44.7762C17.9923 44.7762 18.2721 44.6499 18.4784 44.425C18.6847 44.2001 18.8006 43.8951 18.8006 43.5771C18.8006 39.9796 22.1006 36.8499 25.2026 35.7227C25.3786 35.6507 25.5656 35.6027 25.7746 35.5428C26.1767 35.4482 26.5734 35.3281 26.9626 35.183C27.4657 34.9788 27.9226 34.6589 28.3022 34.2451C28.6818 33.8313 28.9753 33.3332 29.1626 32.7847C29.4572 32.9453 29.7623 33.0816 30.0756 33.1924L28.9756 34.3916C28.8123 34.5711 28.7052 34.8023 28.6697 35.0521C28.6341 35.3019 28.6719 35.5576 28.7776 35.7826L29.8006 37.7492L28.7006 43.3373C28.6422 43.6553 28.7022 43.9856 28.8672 44.2554C29.0322 44.5253 29.2888 44.7126 29.5806 44.7762C29.8723 44.8399 30.1753 44.7745 30.4228 44.5946C30.6704 44.4147 30.8422 44.135 30.9006 43.8169L32.0006 37.8212C32.006 37.7413 32.006 37.6612 32.0006 37.5813C31.9952 37.6612 31.9952 37.7413 32.0006 37.8212L33.1006 43.8169C33.152 44.0919 33.2903 44.3384 33.4912 44.5137C33.6922 44.689 33.9432 44.7819 34.2006 44.7762H34.4206C34.5664 44.7477 34.7055 44.6874 34.8294 44.5989C34.9533 44.5104 35.0596 44.3955 35.1417 44.2611C35.2239 44.1267 35.2804 43.9756 35.3076 43.8168C35.3349 43.6581 35.3325 43.495 35.3006 43.3373L34.2776 37.7492L35.2016 35.7227C35.3073 35.4976 35.3451 35.242 35.3095 34.9921C35.274 34.7423 35.1669 34.5111 35.0036 34.3316L33.9036 33.1325C34.2224 33.0226 34.5316 32.8822 34.8276 32.7128C35.0162 33.2605 35.31 33.7578 35.6895 34.1715C36.069 34.5851 36.5252 34.9055 37.0276 35.1111C37.4401 35.2918 37.8626 35.444 38.2926 35.5668C38.4906 35.6267 38.6886 35.6747 38.8646 35.7466C41.9006 36.8499 45.2006 39.9796 45.2006 43.5771C45.2006 43.8951 45.3165 44.2001 45.5228 44.425C45.7291 44.6499 46.0088 44.7762 46.3006 44.7762C46.5923 44.7762 46.8721 44.6499 47.0784 44.425C47.2847 44.2001 47.4006 43.8951 47.4006 43.5771C47.4006 38.7805 43.4296 34.8713 39.5026 33.4443ZM26.5006 21.0091C26.5006 20.5534 26.5006 20.0737 26.5006 19.5941C26.5006 18.0039 27.08 16.4788 28.1115 15.3544C29.1429 14.23 30.5419 13.5983 32.0006 13.5983C33.4593 13.5983 34.8582 14.23 35.8897 15.3544C36.9211 16.4788 37.5006 18.0039 37.5006 19.5941C37.5006 20.0737 37.5006 20.5534 37.5006 21.0091C37.5006 24.2228 37.5996 26.765 34.7836 29.8348C34.4176 30.2365 33.9823 30.5554 33.5028 30.7729C33.0232 30.9905 32.509 31.1025 31.9896 31.1025C31.4702 31.1025 30.9559 30.9905 30.4764 30.7729C29.9969 30.5554 29.5616 30.2365 29.1956 29.8348C26.3906 26.789 26.4346 24.2228 26.5006 21.0091ZM32.1326 37.0417C32.0502 37.2078 32.005 37.3926 32.0006 37.5813C31.9996 37.3936 31.9581 37.2088 31.8796 37.0417L31.1426 35.4229L32.0006 34.4755L32.8586 35.4229L32.1326 37.0417Z" fill="black"/>
<defs>
<filter id="filter0_d_67_589" x="0" y="0" width="64" height="64" filterUnits="userSpaceOnUse" color-interpolation-filters="sRGB">
<feFlood flood-opacity="0" result="BackgroundImageFix"/>
<feColorMatrix in="SourceAlpha" type="matrix" values="0 0 0 0 0 0 0 0 0 0 0 0 0 0 0 0 0 0 127 0" result="hardAlpha"/>
<feOffset dy="4"/>
<feGaussianBlur stdDeviation="2"/>
<feComposite in2="hardAlpha" operator="out"/>
<feColorMatrix type="matrix" values="0 0 0 0 0 0 0 0 0 0 0 0 0 0 0 0 0 0 0.25 0"/>
<feBlend mode="normal" in2="BackgroundImageFix" result="effect1_dropShadow_67_589"/>
<feBlend mode="normal" in="SourceGraphic" in2="effect1_dropShadow_67_589" result="shape"/>
</filter>
</defs>
</svg>
