<svg width="59" height="63" viewBox="0 0 59 63" fill="none" xmlns="http://www.w3.org/2000/svg">
<path d="M34.0863 1.28312C32.7033 0.443772 31.1171 0 29.5 0C27.8829 0 26.2967 0.443772 24.9137 1.28312L4.26373 13.819C2.96244 14.6087 1.88642 15.7212 1.13955 17.0489C0.392688 18.3767 0.000205254 19.8748 0 21.3988V41.6012C0.000205254 43.1252 0.392688 44.6233 1.13955 45.9511C1.88642 47.2788 2.96244 48.3913 4.26373 49.181L24.9137 61.7169C26.2967 62.5562 27.8829 63 29.5 63C31.1171 63 32.7033 62.5562 34.0863 61.7169L54.7363 49.181C56.0376 48.3913 57.1136 47.2788 57.8604 45.9511C58.6073 44.6233 58.9998 43.1252 59 41.6012V21.3988C58.9998 19.8748 58.6073 18.3767 57.8604 17.0489C57.1136 15.7212 56.0376 14.6087 54.7363 13.819L34.0863 1.28312Z" fill="#E2975A"/>
<path d="M23.8944 13.7481C22.5933 13.7481 21.5344 14.8087 21.5344 16.1119V30.2945H37.2678V16.1119C37.2678 14.8087 36.2089 13.7481 34.9078 13.7481H23.8944ZM19.1621 25.5562C18.9538 25.5595 18.7552 25.6454 18.61 25.7952C18.4649 25.9449 18.3849 26.1462 18.3878 26.3549V38.1738C18.3878 40.7752 20.5105 42.9013 23.1078 42.9013H27.0411V47.6289H23.1078C23.0035 47.6274 22.9 47.6467 22.8033 47.6856C22.7066 47.7245 22.6185 47.7823 22.5443 47.8557C22.47 47.929 22.4111 48.0163 22.3709 48.1127C22.3306 48.209 22.3099 48.3124 22.3099 48.4168C22.3099 48.5212 22.3306 48.6246 22.3709 48.7209C22.4111 48.8172 22.47 48.9046 22.5443 48.9779C22.6185 49.0512 22.7066 49.109 22.8033 49.148C22.9 49.1869 23.0035 49.2062 23.1078 49.2047H35.6944C35.7987 49.2062 35.9022 49.1869 35.9989 49.148C36.0956 49.109 36.1837 49.0512 36.2579 48.9779C36.3322 48.9046 36.3911 48.8172 36.4313 48.7209C36.4716 48.6246 36.4923 48.5212 36.4923 48.4168C36.4923 48.3124 36.4716 48.209 36.4313 48.1127C36.3911 48.0163 36.3322 47.929 36.2579 47.8557C36.1837 47.7823 36.0956 47.7245 35.9989 47.6856C35.9022 47.6467 35.7987 47.6274 35.6944 47.6289H31.7611V42.9013H35.6944C38.2917 42.9013 40.4144 40.7752 40.4144 38.1738V26.3549C40.4159 26.2505 40.3966 26.1468 40.3578 26.05C40.3189 25.9531 40.2612 25.8649 40.188 25.7905C40.1148 25.7162 40.0276 25.6571 39.9314 25.6168C39.8352 25.5765 39.732 25.5558 39.6278 25.5558C39.5235 25.5558 39.4203 25.5765 39.3241 25.6168C39.2279 25.6571 39.1407 25.7162 39.0675 25.7905C38.9943 25.8649 38.9366 25.9531 38.8978 26.05C38.8589 26.1468 38.8396 26.2505 38.8411 26.3549V38.1738C38.8411 39.9233 37.4411 41.3255 35.6944 41.3255H23.1078C21.3611 41.3255 19.9611 39.9233 19.9611 38.1738V26.3549C19.9625 26.2495 19.9429 26.1449 19.9032 26.0472C19.8635 25.9496 19.8047 25.8609 19.7302 25.7864C19.6557 25.7119 19.567 25.6532 19.4695 25.6136C19.3719 25.5741 19.2674 25.5546 19.1621 25.5562ZM21.5344 31.8704V37.3859C21.5344 38.6891 22.5933 39.7496 23.8944 39.7496H34.9078C36.2089 39.7496 37.2678 38.6891 37.2678 37.3859V31.8704H21.5344ZM29.4011 34.2342C30.2704 34.2342 30.9744 34.9393 30.9744 35.81C30.9744 36.6807 30.2704 37.3859 29.4011 37.3859C28.5318 37.3859 27.8278 36.6807 27.8278 35.81C27.8278 34.9393 28.5318 34.2342 29.4011 34.2342Z" fill="black" stroke="black" stroke-width="0.005"/>
<g opacity="0.5">
<line y1="-2" x2="56.2617" y2="-2" transform="matrix(-0.526645 0.850085 -0.849331 -0.527861 41.7769 6.08324)" stroke="#FF0000" stroke-width="4"/>
</g>
</svg>
